<svg id="Layer_1" data-name="Layer 1" xmlns="http://www.w3.org/2000/svg" xmlns:xlink="http://www.w3.org/1999/xlink" width="269.88" height="269.88" viewBox="0 0 269.88 269.88"><defs><style>.cls-1{fill:url(#linear-gradient);}.cls-2{fill:#fff;}.cls-3{fill:none;stroke:#fff;stroke-miterlimit:10;stroke-width:5px;}</style><linearGradient id="linear-gradient" x1="9.03" y1="146.03" x2="278.92" y2="146.03" gradientTransform="matrix(1, 0, 0, -1, -9.03, 280.96)" gradientUnits="userSpaceOnUse"><stop offset="0" stop-color="#154ca1"/><stop offset="1" stop-color="#4062ad"/></linearGradient></defs><title>video-camera3</title><rect class="cls-1" width="269.88" height="269.88" rx="134.94"/><path class="cls-2" d="M236,101.21a3.65,3.65,0,0,0-3.63-.06l-39.7,21.68v-13A18.35,18.35,0,0,0,174.36,91.5H83.11a18.35,18.35,0,0,0-18.33,18.33V182.2a18.35,18.35,0,0,0,18.33,18.33h91.25a18.35,18.35,0,0,0,18.33-18.33V169.4l39.7,21.67a3.66,3.66,0,0,0,5-1.46,3.54,3.54,0,0,0,.45-1.75V104.34A3.65,3.65,0,0,0,236,101.21Zm-50.67,81a11,11,0,0,1-11,11H83.11a11,11,0,0,1-11-11V109.8a11,11,0,0,1,11-11h91.25a11,11,0,0,1,11,11Zm45.14-.49-37.8-20.64V131.21l37.8-20.64Z" transform="translate(-9 -9)"/><path class="cls-3" d="M154.52,154.72H140.14v14.77H119.58V154.72H105.2V135.13h14.38V120.27h20.56v14.86h14.38Z" transform="translate(-9 -9)"/></svg>