<?xml version="1.0" encoding="iso-8859-1"?>
<!-- Generator: Adobe Illustrator 19.0.0, SVG Export Plug-In . SVG Version: 6.00 Build 0)  -->
<svg version="1.1" id="Capa_1" xmlns="http://www.w3.org/2000/svg" xmlns:xlink="http://www.w3.org/1999/xlink" x="0px" y="0px"
	 viewBox="0 0 511.988 511.988" style="enable-background:new 0 0 511.988 511.988;" xml:space="preserve">
<g transform="translate(1 1)">
	<g>
		<path d="M489.305,185.463c-8.354-8.309-21.861-8.272-30.17,0.081L202.687,443.379c-33.271,33.271-87.308,33.271-120.641-0.045
			c-33.308-33.325-33.308-87.362,0.004-120.674L346.089,57.234c20.772-20.771,54.543-20.771,75.375,0.045
			c20.826,20.826,20.826,54.593-0.005,75.425L202.727,351.434c-0.014,0.014-0.026,0.03-0.04,0.044
			c-8.333,8.287-21.8,8.276-30.116-0.04c-8.33-8.33-8.33-21.831,0-30.161l105.58-105.602c8.33-8.332,8.329-21.84-0.003-30.17
			c-8.332-8.33-21.84-8.329-30.17,0.003l-105.579,105.6c-24.991,24.991-24.991,65.507,0.002,90.499
			c24.992,24.992,65.508,24.992,90.501,0c0.029-0.029,0.052-0.06,0.08-0.089l218.646-218.646c37.494-37.494,37.494-98.276,0-135.77
			c-37.499-37.472-98.277-37.472-135.749,0L51.84,292.53C1.906,342.464,1.906,423.509,51.876,473.504
			c50.003,49.977,131.049,49.977,181.022,0.004l256.489-257.875C497.695,207.279,497.658,193.772,489.305,185.463z"/>
	</g>
</g>
<g>
</g>
<g>
</g>
<g>
</g>
<g>
</g>
<g>
</g>
<g>
</g>
<g>
</g>
<g>
</g>
<g>
</g>
<g>
</g>
<g>
</g>
<g>
</g>
<g>
</g>
<g>
</g>
<g>
</g>
</svg>
