<?xml version="1.0" encoding="iso-8859-1"?>
<!-- Generator: Adobe Illustrator 19.0.0, SVG Export Plug-In . SVG Version: 6.00 Build 0)  -->
<svg version="1.1" id="Capa_1" xmlns="http://www.w3.org/2000/svg" xmlns:xlink="http://www.w3.org/1999/xlink" x="0px" y="0px"
	 viewBox="0 0 512 512" style="enable-background:new 0 0 512 512;" xml:space="preserve">
<g>
	<g>
		<path d="M502.72,253.163c-66.944-63.445-154.581-98.389-246.72-98.389S76.224,189.717,9.067,253.355
			C3.2,259.2,0,267.029,0,275.413c0,8.448,3.371,16.491,9.067,21.845l50.688,50.709c11.712,11.669,32.747,11.328,43.627,0.491
			c15.851-14.677,33.323-26.816,51.776-36.053c11.435-5.525,15.509-19.051,15.509-29.845v-56.021
			c27.2-7.317,58.133-7.979,85.333-7.979c28.821,0,58.965,0.661,85.333,7.915v56.085c0,14.165,5.717,25.387,15.189,29.995
			c19.285,9.643,36.821,21.76,52.032,36.032c5.803,5.483,13.696,8.64,21.632,8.64c8.384,0,16.213-3.2,22.059-9.045l50.688-50.688
			c5.845-5.845,9.067-13.675,9.067-22.08C512,267.029,508.8,259.2,502.72,253.163z"/>
	</g>
</g>
<g>
</g>
<g>
</g>
<g>
</g>
<g>
</g>
<g>
</g>
<g>
</g>
<g>
</g>
<g>
</g>
<g>
</g>
<g>
</g>
<g>
</g>
<g>
</g>
<g>
</g>
<g>
</g>
<g>
</g>
</svg>
