<svg id="Capa_1" enable-background="new 0 0 503.847 503.847" height="512" viewBox="0 0 503.847 503.847" width="512" xmlns="http://www.w3.org/2000/svg"><path d="m498.169 12.263c-10.969-15.779-34.033-16.448-45.898-1.327-51.955 66.219-34.157 45.795-58.13 66.363l14.385-36.75c7.005-17.894-5.277-37.43-24.442-38.871-19.156-1.443-34.231 16.033-29.979 34.78l14.64 64.543c-9.315 9.45-18.217 19.379-26.693 29.768l8.352-31.551c4.921-18.584-9.506-36.572-28.716-35.829-19.203.755-32.177 19.836-25.815 37.972l21.836 62.25c-8.466 12.59-15.44 24.127-22.702 37.477 3.744-32.508 3.6-30.669 3.6-32.923 0-17.644-16.027-31.3-33.757-28.008-26.152 4.85-29.599 40.53-14.601 38.412 4.102-.58 6.956-4.375 6.376-8.476-1.101-7.862 4.923-15.423 13.493-15.423 7.966 0 14.342 6.945 13.395 15.104l-5.044 43.8-9.864-18.878c-1.918-3.672-6.45-5.09-10.121-3.174-3.671 1.918-5.092 6.45-3.174 10.121l20.386 39.016c-35.013 80.379-50.189 166.097-41.8 256.382.361 3.889 3.63 6.807 7.459 6.807 4.44 0 7.885-3.81 7.477-8.194-8.079-86.941 6.309-169.693 40.03-247.471 68.807 4.653 64.176 4.37 65.613 4.37 18.175 0 31.97-16.986 27.727-35.072-4.392-18.705-25.591-27.82-42.188-18.125l-38.953 22.751c8.092-16.063 17.423-32.367 28.168-48.516 68.331 14.68 64.909 14.199 69.155 14.199 16.078 0 29.825-13.827 28.333-31.026-1.656-19.136-21.324-31.212-39.146-23.997l-41.002 16.592c9.802-12.747 20.576-25.263 32.418-37.346 66.669 22.534 63.97 22.176 70.284 22.176 28.301 0 39.62-37.786 14.834-52.935-3.532-2.159-8.149-1.047-10.311 2.488-2.16 3.534-1.046 8.15 2.488 10.311 4.137 2.529 6.641 6.992 6.501 11.953-.246 8.791-9.002 15.454-17.878 12.455l-41.769-14.118 30.167-8.355c3.992-1.106 6.332-5.238 5.226-9.23-1.105-3.991-5.232-6.33-9.229-5.226l-25.224 6.987c4.829-4.142 9.815-8.205 14.947-12.187l64.398-20.583c18.303-5.853 25.718-27.703 14.748-43.486zm-150.591 200.045c13.219-7.722 26.854 9.041 17.158 20.463-2.811 3.31-6.896 5.043-11.24 4.748l-43.989-2.975zm-11.674-116.928-11.282 42.622-14.595-41.604c-5.065-14.441 13.978-24.65 23.353-12.956 2.715 3.388 3.635 7.739 2.524 11.938zm57.293 51.292c4.026-1.627 8.459-1.261 12.16 1.008 12.786 7.838 5.032 28.003-9.925 24.792l-43.106-9.261zm-14.71-70.534-9.753-42.997c-.961-4.235.114-8.551 2.95-11.841 9.783-11.349 28.453-.473 22.873 13.781zm109.07-43.231c-1.396 4.113-4.567 7.229-8.704 8.552l-41.996 13.423 27.215-34.688c9.391-11.968 28.314-1.528 23.485 12.713z"/><path d="m186.732 67.739c-8.931 2.001-16.172 7.951-19.868 16.322-33.948 76.87-21.759 52.728-39.946 78.608l4.863-39.113c2.37-19.067-14.35-34.971-33.279-31.634-18.926 3.334-29.213 23.987-20.467 41.103l30.098 58.893c-6.691 11.448-12.855 23.255-18.498 35.402l.305-32.563c.086-9.151-4.058-17.559-11.367-23.066-15.348-11.566-37.467-4.995-44.015 13.073-3.118 8.604-2 17.91 3.067 25.531l36.512 54.914c-4.849 13.607-9.098 27.584-12.74 41.917l-3.999-29.499c-2.58-19.042-22.811-30.14-40.259-22.079-17.445 8.06-22.114 30.658-9.281 44.969l44.59 49.738c-7.252 44.774-8.996 92.784-5.018 140.053.329 3.914 3.607 6.872 7.465 6.872 4.416 0 7.85-3.77 7.482-8.129-2.846-33.82-3.722-81.631 4.798-134.765l62.611-11.516c18.902-3.476 29.032-24.206 20.157-41.256-8.873-17.045-31.666-20.642-45.355-7.152l-32.028 31.558c3.884-17.657 8.89-35.71 15.25-53.868l64.413-2.435c15.411-.583 27.482-13.102 27.482-28.5 0-3.199-.542-6.373-1.61-9.433-9.028-25.866-46.238-22.646-41.022-7.945 1.385 3.903 5.67 5.944 9.576 4.561 8.64-3.068 18.057 3.367 18.057 12.817 0 7.3-5.731 13.234-13.049 13.511l-44.059 1.666 16.354-12.023c3.337-2.454 4.054-7.148 1.601-10.485-2.453-3.338-7.147-4.054-10.485-1.601l-16.459 12.1c6.36-14.809 13.708-29.589 22.177-44.185 69.575 5.335 64.976 5.019 66.585 5.019 18.004 0 31.847-16.751 27.777-34.821-4.223-18.749-25.34-28.049-42.022-18.506l-33.828 19.352c3.657-5.206 7.483-10.372 11.468-15.493l57.345-35.855c7.76-4.852 12.616-12.868 13.326-21.992 1.488-19.153-15.947-34.272-34.705-30.065zm-167.706 222.763c-6.087-6.79-3.875-17.513 4.404-21.338 8.277-3.824 17.878 1.439 19.104 10.477l5.923 43.69zm96.09 14.542c2.572-2.535 5.934-3.902 9.459-3.902 16.471 0 18.573 23.917 2.499 26.872l-43.362 7.976zm-40.589-66.341-24.411-36.714c-8.476-12.749 7.469-27.334 19.431-18.318 3.469 2.613 5.435 6.603 5.394 10.945zm42.369-116.998-5.439 43.753-20.064-39.26c-4.583-8.966 1.868-19.716 12.111-19.716 7.892.001 14.42 6.949 13.392 15.223zm63.678 43.109c13.273-7.59 26.779 9.274 16.974 20.617-2.841 3.285-6.951 4.978-11.283 4.646l-43.96-3.371zm19.583-57.736-37.384 23.375 17.813-40.333c2.268-5.137 7.217-8.081 12.439-8.081 13.506 0 18.601 17.869 7.132 25.039z"/></svg>