<svg id="Layer_1" data-name="Layer 1" xmlns="http://www.w3.org/2000/svg" xmlns:xlink="http://www.w3.org/1999/xlink" width="101.78mm" height="101.78mm" viewBox="0 0 288.52 288.52"><defs><style>.cls-1{fill:url(#linear-gradient);}.cls-2{fill:#fff;}.cls-3,.cls-4{fill:none;stroke-miterlimit:10;}.cls-3{stroke:#fff;stroke-width:5px;}.cls-4{stroke-width:2px;stroke:url(#linear-gradient-2);}</style><linearGradient id="linear-gradient" x1="9" y1="143.94" x2="278.89" y2="143.94" gradientUnits="userSpaceOnUse"><stop offset="0" stop-color="#5fc7cc"/><stop offset="1" stop-color="#009688"/></linearGradient><linearGradient id="linear-gradient-2" x1="0" y1="144.26" x2="288.52" y2="144.26" xlink:href="#linear-gradient"/></defs><title>video-camera3</title><rect class="cls-1" x="9" y="9" width="269.89" height="269.89" rx="134.94"/><path class="cls-2" d="M328.09,179a3.67,3.67,0,0,0-3.63-.06l-39.7,21.68v-13a18.35,18.35,0,0,0-18.33-18.33H175.17a18.35,18.35,0,0,0-18.33,18.33V260a18.35,18.35,0,0,0,18.33,18.33h91.26A18.35,18.35,0,0,0,284.76,260V247.2l39.7,21.67a3.67,3.67,0,0,0,5.43-3.21V182.13A3.68,3.68,0,0,0,328.09,179Zm-50.67,81a11,11,0,0,1-11,11H175.17a11,11,0,0,1-11-11V187.59a11,11,0,0,1,11-11h91.26a11,11,0,0,1,11,11Zm45.14-.49-37.8-20.64V209l37.8-20.64Z" transform="translate(-92.06 -77.79)"/><path class="cls-3" d="M246.59,232.52H232.2v14.77H211.64V232.52H197.26v-19.6h14.38V198.06H232.2v14.86h14.39Z" transform="translate(-92.06 -77.79)"/><rect class="cls-4" x="1" y="1" width="286.52" height="286.52" rx="143.26"/></svg>