<svg id="Layer_1" data-name="Layer 1" xmlns="http://www.w3.org/2000/svg" xmlns:xlink="http://www.w3.org/1999/xlink" width="98.74mm" height="98.74mm" viewBox="0 0 279.89 279.89"><defs><style>.cls-1{fill:#fff;stroke-width:10px;stroke:url(#linear-gradient);}.cls-1,.cls-3{stroke-miterlimit:10;}.cls-2{fill:url(#linear-gradient-2);}.cls-3{fill:none;stroke-width:6px;stroke:url(#linear-gradient-3);}</style><linearGradient id="linear-gradient" y1="139.94" x2="279.89" y2="139.94" gradientUnits="userSpaceOnUse"><stop offset="0" stop-color="#5fc7cc"/><stop offset="1" stop-color="#009688"/></linearGradient><linearGradient id="linear-gradient-2" x1="156.84" y1="223.78" x2="329.89" y2="223.78" xlink:href="#linear-gradient"/><linearGradient id="linear-gradient-3" x1="194.26" y1="222.67" x2="249.59" y2="222.67" xlink:href="#linear-gradient"/></defs><title>video-camera</title><rect class="cls-1" x="5" y="5" width="269.89" height="269.89" rx="134.94"/><path class="cls-2" d="M328.09,179a3.67,3.67,0,0,0-3.63-.06l-39.7,21.68v-13a18.35,18.35,0,0,0-18.33-18.33H175.17a18.35,18.35,0,0,0-18.33,18.33V260a18.35,18.35,0,0,0,18.33,18.33h91.26A18.35,18.35,0,0,0,284.76,260V247.2l39.7,21.67a3.67,3.67,0,0,0,5.43-3.21V182.13A3.68,3.68,0,0,0,328.09,179Zm-50.67,81a11,11,0,0,1-11,11H175.17a11,11,0,0,1-11-11V187.59a11,11,0,0,1,11-11h91.26a11,11,0,0,1,11,11Zm45.14-.49-37.8-20.64V209l37.8-20.64Z" transform="translate(-96.06 -81.79)"/><path class="cls-3" d="M246.59,232.52H232.2v14.77H211.64V232.52H197.26v-19.6h14.38V198.06H232.2v14.86h14.39Z" transform="translate(-96.06 -81.79)"/></svg>