<svg id="Capa_1" enable-background="new 0 0 512 512" height="512" viewBox="0 0 512 512" width="512" xmlns="http://www.w3.org/2000/svg"><g><path d="m426.29 33h-35.29v-7.209c0-14.221-11.569-25.791-25.791-25.791h-218.418c-14.222 0-25.791 11.57-25.791 25.791v7.209h-35.29c-15.831 0-28.71 12.884-28.71 28.72v421.57c0 15.831 12.879 28.71 28.71 28.71h340.58c15.831 0 28.71-12.879 28.71-28.71v-421.57c0-15.836-12.879-28.72-28.71-28.72zm-275.29-3h210v35h-210zm274 452h-338v-419h34v6.209c0 14.221 11.569 25.791 25.791 25.791h218.418c14.222 0 25.791-11.57 25.791-25.791v-6.209h34z"/><path d="m241 264c0 8.284 6.716 15 15 15s15-6.716 15-15v-41h41c8.284 0 15-6.716 15-15s-6.716-15-15-15h-41v-41c0-8.284-6.716-15-15-15s-15 6.716-15 15v41h-41c-8.284 0-15 6.716-15 15s6.716 15 15 15h41z"/><path d="m168 313h-32c-8.284 0-15 6.716-15 15s6.716 15 15 15h32c8.284 0 15-6.716 15-15s-6.716-15-15-15z"/><path d="m168 377h-32c-8.284 0-15 6.716-15 15s6.716 15 15 15h32c8.284 0 15-6.716 15-15s-6.716-15-15-15z"/><path d="m376 313h-136c-8.284 0-15 6.716-15 15s6.716 15 15 15h136c8.284 0 15-6.716 15-15s-6.716-15-15-15z"/><path d="m376 377h-136c-8.284 0-15 6.716-15 15s6.716 15 15 15h136c8.284 0 15-6.716 15-15s-6.716-15-15-15z"/></g></svg>